<?xml version="1.0" encoding="UTF-8"?>
<svg id="Layer_1" xmlns="http://www.w3.org/2000/svg" version="1.1" viewBox="0 0 512 512">
  <!-- Generator: Adobe Illustrator 29.5.1, SVG Export Plug-In . SVG Version: 2.1.0 Build 141)  -->
  <defs>
    <style>
      .st0 {
        fill: #00a0e9;
      }

      .st1 {
        fill: #515151;
      }
    </style>
  </defs>
  <path class="st1" d="M437.02,437.02c-48.35,48.35-112.64,74.98-181.02,74.98-68.38,0-132.67-26.63-181.02-74.98C26.63,388.67,0,324.38,0,256,0,187.62,26.63,123.33,74.98,74.98,133.19,16.77,216.33-10.17,297.37,2.91c10.9,1.76,18.32,12.03,16.56,22.93-1.76,10.9-12.03,18.32-22.93,16.56-68.4-11.04-138.58,11.71-187.73,60.87-84.22,84.22-84.22,221.25,0,305.47,84.22,84.22,221.25,84.22,305.47,0,49.15-49.15,71.91-119.33,60.86-187.73-1.76-10.9,5.65-21.17,16.56-22.93,10.9-1.76,21.17,5.65,22.93,16.56,13.08,81.04-13.86,164.18-72.07,222.39ZM390.55,254.27c-.18-11.04-9.27-19.85-20.32-19.68-11.05.18-19.85,9.27-19.68,20.32.41,25.95-9.31,50.2-27.38,68.27-37.04,37.04-97.31,37.04-134.35,0-37.04-37.04-37.04-97.31,0-134.35,18.07-18.07,42.32-27.79,68.27-27.38,11.04.18,20.14-8.63,20.32-19.68.18-11.04-8.63-20.14-19.68-20.32-36.88-.59-71.4,13.29-97.19,39.09-52.64,52.64-52.64,138.28,0,190.92,52.64,52.64,138.28,52.64,190.92,0,25.8-25.8,39.68-60.31,39.09-97.19Z"/>
  <path class="st0" d="M430.53,110.23c-7.72.02-14.95-2.95-20.38-8.38s-8.4-12.67-8.38-20.38l.1-33.3c.03-11.05-8.9-20.03-19.94-20.06-11.05-.03-20.03,8.9-20.06,19.94l-.1,33.3c-.03,11.55,2.76,22.67,8.04,32.56l-127.95,127.95c-7.81,7.81-7.81,20.47,0,28.28,7.81,7.81,20.47,7.81,28.28,0l127.95-127.95c9.89,5.29,21,8.08,32.56,8.04l33.3-.1c5.5-.02,10.48-2.25,14.08-5.86s5.87-8.66,5.86-14.2c-.03-11.05-9.01-19.97-20.06-19.94l-33.3.1Z"/>
</svg>