<?xml version="1.0" encoding="UTF-8"?>
<svg id="Layer_1" xmlns="http://www.w3.org/2000/svg" version="1.1" viewBox="0 0 512 512">
  <!-- Generator: Adobe Illustrator 29.5.1, SVG Export Plug-In . SVG Version: 2.1.0 Build 141)  -->
  <defs>
    <style>
      .st0 {
        stroke: #00a0e9;
        stroke-width: 35px;
      }

      .st0, .st1 {
        fill: none;
        stroke-linecap: round;
        stroke-linejoin: round;
      }

      .st1 {
        stroke: #515151;
        stroke-width: 38px;
      }
    </style>
  </defs>
  <line class="st1" x1="338.09" y1="22.18" x2="282.84" y2="128.68"/>
  <line class="st1" x1="467.04" y1="29.04" x2="387.27" y2="182.84"/>
  <line class="st1" x1="229.16" y1="128.68" x2="173.91" y2="22.18"/>
  <line class="st1" x1="124.73" y1="182.84" x2="44.96" y2="29.04"/>
  <path class="st0" d="M266,216.33l20.64,41.83c1.62,3.29,4.77,5.57,8.4,6.1l46.16,6.71c9.15,1.33,12.8,12.57,6.18,19.03l-33.4,32.56c-2.63,2.56-3.83,6.26-3.21,9.87l7.88,45.97c1.56,9.11-8,16.06-16.19,11.76l-41.29-21.7c-3.25-1.71-7.13-1.71-10.38,0l-41.29,21.7c-8.18,4.3-17.75-2.65-16.19-11.76l7.88-45.97c.62-3.62-.58-7.31-3.21-9.87l-33.4-32.56c-6.62-6.45-2.97-17.7,6.18-19.03l46.16-6.71c3.63-.53,6.78-2.81,8.4-6.1l20.64-41.83c4.09-8.29,15.92-8.29,20.01,0Z"/>
  <path class="st1" d="M437.56,308.26c0-14.92-6.56-28.3-16.95-37.42-7.11-6.24-12.93-13.84-16.48-22.61-.32-.79-.65-1.58-.98-2.36-3.72-8.79-4.88-18.37-4.32-27.9.81-13.68-3.99-27.63-14.45-38.08-10.46-10.46-24.4-15.26-38.08-14.45-9.53.56-19.11-.6-27.9-4.32-.78-.33-1.57-.66-2.36-.98-8.77-3.55-16.37-9.37-22.61-16.47-9.13-10.39-22.51-16.95-37.43-16.95s-28.3,6.56-37.43,16.95c-6.24,7.11-13.84,12.93-22.61,16.47-.79.32-1.58.65-2.36.98-8.79,3.72-18.37,4.89-27.9,4.32-13.68-.81-27.63,3.99-38.08,14.45-10.46,10.46-15.26,24.4-14.45,38.08.56,9.53-.6,19.1-4.32,27.9-.33.78-.66,1.57-.98,2.36-3.55,8.77-9.37,16.37-16.48,22.61-10.39,9.13-16.95,22.51-16.95,37.42s6.56,28.3,16.95,37.42c7.11,6.24,12.93,13.84,16.47,22.61.32.79.65,1.58.98,2.36,3.72,8.79,4.89,18.37,4.32,27.9-.81,13.68,3.99,27.63,14.45,38.08,10.46,10.46,24.4,15.26,38.08,14.45,9.53-.56,19.11.6,27.9,4.32.78.33,1.57.66,2.36.98,8.77,3.55,16.37,9.37,22.61,16.47,9.12,10.39,22.51,16.95,37.42,16.95s28.3-6.56,37.43-16.95c6.24-7.11,13.84-12.93,22.61-16.47.79-.32,1.58-.64,2.36-.98,8.79-3.72,18.37-4.89,27.9-4.32,13.68.81,27.63-3.99,38.08-14.45,10.46-10.46,15.26-24.4,14.45-38.08-.56-9.53.6-19.1,4.32-27.9.33-.78.66-1.57.98-2.36,3.55-8.77,9.37-16.37,16.48-22.61,10.39-9.12,16.95-22.51,16.95-37.42Z"/>
</svg>