<?xml version="1.0" encoding="UTF-8"?>
<svg id="Layer_1" xmlns="http://www.w3.org/2000/svg" version="1.1" viewBox="0 0 512 512">
  <!-- Generator: Adobe Illustrator 29.5.1, SVG Export Plug-In . SVG Version: 2.1.0 Build 141)  -->
  <defs>
    <style>
      .st0 {
        fill: #00a0e9;
        stroke-width: 4.91px;
      }

      .st0, .st1 {
        stroke: #00a0e9;
      }

      .st0, .st1, .st2, .st3 {
        stroke-linecap: round;
        stroke-linejoin: round;
      }

      .st1 {
        stroke-width: 31.72px;
      }

      .st1, .st2, .st3 {
        fill: none;
      }

      .st2 {
        stroke-width: 38px;
      }

      .st2, .st3 {
        stroke: #515151;
      }

      .st3 {
        stroke-width: 36px;
      }
    </style>
  </defs>
  <path class="st0" d="M285.78,236c-5.02,0-9.48-2.23-12.55-6.14l-22.03-29.01c-5.58-6.69-4.46-16.74,2.51-22.31,6.69-5.58,16.74-4.46,22.31,2.51,0,.28.28.28.28.56l12.83,16.74,64.15-46.02c6.97-5.02,17.01-3.35,22.03,3.63,5.02,6.97,3.35,17.01-3.63,22.03h0l-76.7,54.95c-2.79,1.95-6.14,3.07-9.2,3.07Z"/>
  <g>
    <path class="st3" d="M35.17,466.31c-9.54-9.14-10-24.22-.87-34.04l91.79-95.06c9.14-9.54,24.22-10,34.04-.87l8.51,8.15c9.68,8.99,10.15,24.36,1.01,33.89h0l-91.79,95.06c-9.14,9.54-24.22,10-34.04.87h0l-8.65-8.01h0Z"/>
    <path class="st2" d="M424.19,66.85c-52.09-49.91-130.88-59.71-193.74-24.04-78.73,44.52-106.2,144.32-61.68,223.05,31.58,55.54,92.27,87.79,155.94,82.48h0c90.08-7.44,156.88-86.51,149.44-176.58-2.98-36.16-17.88-70.17-42.23-96.89-2.43-2.94-5.16-5.56-7.73-8.02h0Z"/>
    <line class="st3" x1="193.78" y1="307.67" x2="171.69" y2="330.73"/>
  </g>
  <rect class="st1" x="204.33" y="78.45" width="213.52" height="213.52" rx="106.76" ry="106.76"/>
</svg>