<?xml version="1.0" encoding="UTF-8"?>
<svg id="Layer_1" xmlns="http://www.w3.org/2000/svg" version="1.1" viewBox="0 0 512 512">
  <!-- Generator: Adobe Illustrator 29.5.1, SVG Export Plug-In . SVG Version: 2.1.0 Build 141)  -->
  <defs>
    <style>
      .st0 {
        fill: #00a0e9;
      }

      .st1 {
        fill: #515151;
      }
    </style>
  </defs>
  <path class="st0" d="M492,137c-11.05,0-20-8.95-20-20v-57c0-11.03-8.97-20-20-20h-56c-11.05,0-20-8.95-20-20S384.95,0,396,0h56C485.08,0,512,26.92,512,60v57c0,11.05-8.95,20-20,20ZM177.14,362.14L436.14,103.14c7.81-7.81,7.81-20.47,0-28.28s-20.47-7.81-28.28,0L148.86,333.86c-7.81,7.81-7.81,20.47,0,28.28,3.9,3.9,9.02,5.86,14.14,5.86s10.24-1.95,14.14-5.86Z"/>
  <path class="st1" d="M336,401c-33.08,0-60-26.92-60-60s26.92-60,60-60,60,26.92,60,60-26.92,60-60,60ZM336,321c-11.03,0-20,8.97-20,20s8.97,20,20,20,20-8.97,20-20-8.97-20-20-20ZM176,231c-33.08,0-60-26.92-60-60s26.92-60,60-60,60,26.92,60,60-26.92,60-60,60ZM176,151c-11.03,0-20,8.97-20,20s8.97,20,20,20,20-8.97,20-20-8.97-20-20-20ZM437.02,437.02c48.35-48.35,74.98-112.64,74.98-181.02,0-21.66-2.71-43.19-8.07-63.99-2.75-10.7-13.66-17.14-24.35-14.38-10.7,2.75-17.14,13.66-14.38,24.35,4.52,17.54,6.8,35.71,6.8,54.01,0,119.1-96.9,216-216,216S40,375.1,40,256,136.9,40,256,40c18.59,0,37.08,2.37,54.93,7.05,10.69,2.8,21.62-3.59,24.42-14.28s-3.59-21.62-14.28-24.42C299.91,2.81,278.01,0,256,0,187.62,0,123.33,26.63,74.98,74.98,26.63,123.33,0,187.62,0,256s26.63,132.67,74.98,181.02c48.35,48.35,112.64,74.98,181.02,74.98s132.67-26.63,181.02-74.98h0Z"/>
</svg>