<?xml version="1.0" encoding="UTF-8"?>
<svg id="Layer_1" xmlns="http://www.w3.org/2000/svg" version="1.1" viewBox="0 0 512 512">
  <!-- Generator: Adobe Illustrator 29.5.1, SVG Export Plug-In . SVG Version: 2.1.0 Build 141)  -->
  <defs>
    <style>
      .st0 {
        fill: #00a0e9;
      }

      .st1 {
        fill: #515151;
      }
    </style>
  </defs>
  <path class="st1" d="M74,512c-40.8,0-74-33.2-74-74v-190c0-40.8,33.2-74,74-74s74,33.2,74,74v190c0,40.8-33.2,74-74,74ZM74,214c-18.75,0-34,15.25-34,34v190c0,18.75,15.25,34,34,34s34-15.25,34-34v-190c0-18.75-15.25-34-34-34ZM256,512c-40.8,0-74-33.2-74-74v-82c0-40.8,33.2-74,74-74s74,33.2,74,74v82c0,40.8-33.2,74-74,74ZM256,322c-18.75,0-34,15.25-34,34v82c0,18.75,15.25,34,34,34s34-15.25,34-34v-82c0-18.75-15.25-34-34-34ZM438,512c-40.8,0-74-33.2-74-74v-175c0-40.8,33.2-74,74-74s74,33.2,74,74v175c0,40.8-33.2,74-74,74ZM438,229c-18.75,0-34,15.25-34,34v175c0,18.75,15.25,34,34,34s34-15.25,34-34v-175c0-18.75-15.25-34-34-34Z"/>
  <path class="st0" d="M274.91,243.95c-15.26,0-30.58-4.94-43.36-15.05-.36-.28-128.02-116.24-128.02-116.24-11.36-8.63-27.14-8.09-37.89,1.32l-31.58,31.24c-7.85,7.77-20.52,7.7-28.28-.15-7.77-7.85-7.7-20.52.15-28.28,0,0,32.41-32.05,32.65-32.26,25.44-22.88,63.39-24.08,90.23-2.86.36.28,128.02,116.24,128.02,116.24,12.36,9.39,30.01,7.76,40.44-3.83.12-.14.25-.28.38-.41l110.86-116.45c7.62-8,20.27-8.31,28.27-.69,8,7.62,8.31,20.28.7,28.28l-110.68,116.26c-13.73,15.12-32.75,22.9-51.89,22.9h0ZM512,114v-54C512,26.92,485.08,0,452,0h-54C386.95,0,378,8.95,378,20s8.95,20,20,20h54c11.03,0,20,8.97,20,20v54c0,11.05,8.95,20,20,20s20-8.95,20-20Z"/>
</svg>